<svg width="24" height="24" viewBox="0 0 24 24" fill="none" xmlns="http://www.w3.org/2000/svg">
<path fill-rule="evenodd" clip-rule="evenodd" d="M12.5 3C13.0128 3 13.4355 3.38604 13.4933 3.88338L13.5 4V20C13.5 20.5523 13.0523 21 12.5 21L12.3915 20.9956C12.0979 20.9956 11.8164 20.8839 11.6089 20.685L7.959 16.999L3 17C1.89543 17 1 16.1046 1 15V9C1 7.89543 1.89543 7 3 7L7.958 6.999L11.6089 3.31058C11.8434 3.08589 12.157 2.98311 12.4639 3.00225L12.5 3ZM17.9146 4.69591C18.3588 4.36752 18.985 4.46158 19.3132 4.906C20.8177 6.94311 21.643 9.40749 21.643 11.994C21.643 14.5862 20.814 17.0556 19.3035 19.0951C18.9747 19.5391 18.3484 19.6323 17.9047 19.3033C17.461 18.9743 17.3678 18.3477 17.6966 17.9037C18.954 16.206 19.643 14.1535 19.643 11.994C19.643 9.83925 18.957 7.79087 17.7047 6.0952C17.3765 5.65078 17.4705 5.0243 17.9146 4.69591ZM15.9403 8.46804C16.4057 8.17075 17.0241 8.30707 17.3213 8.77251C17.932 9.72859 18.2617 10.8405 18.2617 11.9986C18.2617 13.158 17.9313 14.2709 17.3195 15.2277C17.0219 15.6929 16.4035 15.8289 15.9382 15.5313C15.473 15.2338 15.337 14.6154 15.6346 14.1501C16.0422 13.5128 16.2617 12.7732 16.2617 11.9986C16.2617 11.2248 16.0426 10.486 15.6358 9.84909C15.3385 9.38365 15.4749 8.76533 15.9403 8.46804Z" fill="white"/>
</svg>
